<mxfile host="app.diagrams.net" modified="2021-07-05T12:08:31.985Z" agent="5.0 (Macintosh; Intel Mac OS X 10_15_7) AppleWebKit/537.36 (KHTML, like Gecko) Chrome/91.0.4472.114 Safari/537.36" etag="nKhQ8O1iGowGS1IUQnKg" version="14.8.2" type="github">
  <diagram id="fP7j6O5ex-q-pB03eMdX" name="Page-1">
    <mxGraphModel dx="1835" dy="654" grid="1" gridSize="10" guides="1" tooltips="1" connect="1" arrows="1" fold="1" page="1" pageScale="1" pageWidth="827" pageHeight="1169" math="0" shadow="0">
      <root>
        <mxCell id="0" />
        <mxCell id="1" parent="0" />
        <mxCell id="GihW5QAEGFhs0_07zUFj-1" value="runtime-core" style="swimlane;childLayout=stackLayout;resizeParent=1;resizeParentMax=0;startSize=40;fontSize=18;" vertex="1" parent="1">
          <mxGeometry x="-100" y="460" width="740" height="1140" as="geometry" />
        </mxCell>
        <mxCell id="GihW5QAEGFhs0_07zUFj-2" value="index" style="swimlane;startSize=40;fontSize=18;" vertex="1" parent="GihW5QAEGFhs0_07zUFj-1">
          <mxGeometry y="40" width="250" height="1100" as="geometry">
            <mxRectangle y="20" width="30" height="460" as="alternateBounds" />
          </mxGeometry>
        </mxCell>
        <mxCell id="GihW5QAEGFhs0_07zUFj-23" style="edgeStyle=orthogonalEdgeStyle;rounded=1;orthogonalLoop=1;jettySize=auto;html=1;fontSize=18;" edge="1" parent="GihW5QAEGFhs0_07zUFj-2" source="GihW5QAEGFhs0_07zUFj-7" target="GihW5QAEGFhs0_07zUFj-22">
          <mxGeometry relative="1" as="geometry" />
        </mxCell>
        <mxCell id="GihW5QAEGFhs0_07zUFj-7" value="&lt;font style=&quot;font-size: 16px&quot;&gt;ensureRender&lt;/font&gt;" style="rounded=1;whiteSpace=wrap;html=1;fontSize=18;fillColor=#ffe6cc;strokeColor=#d79b00;" vertex="1" parent="GihW5QAEGFhs0_07zUFj-2">
          <mxGeometry x="70" y="65" width="110" height="40" as="geometry" />
        </mxCell>
        <mxCell id="GihW5QAEGFhs0_07zUFj-29" style="edgeStyle=orthogonalEdgeStyle;rounded=1;orthogonalLoop=1;jettySize=auto;html=1;exitX=0.5;exitY=1;exitDx=0;exitDy=0;fontSize=18;" edge="1" parent="GihW5QAEGFhs0_07zUFj-2" source="GihW5QAEGFhs0_07zUFj-22" target="GihW5QAEGFhs0_07zUFj-25">
          <mxGeometry relative="1" as="geometry" />
        </mxCell>
        <mxCell id="GihW5QAEGFhs0_07zUFj-22" value="&lt;span style=&quot;font-size: 16px&quot;&gt;ensureRender.createApp&lt;/span&gt;" style="rounded=1;whiteSpace=wrap;html=1;fontSize=18;fillColor=#ffe6cc;strokeColor=#d79b00;" vertex="1" parent="GihW5QAEGFhs0_07zUFj-2">
          <mxGeometry x="35" y="320" width="180" height="50" as="geometry" />
        </mxCell>
        <mxCell id="GihW5QAEGFhs0_07zUFj-25" value="&lt;font style=&quot;font-size: 16px&quot;&gt;app.mount&lt;br&gt;挂载&lt;br&gt;&lt;/font&gt;" style="rounded=1;whiteSpace=wrap;html=1;fontSize=18;fillColor=#ffe6cc;strokeColor=#d79b00;" vertex="1" parent="GihW5QAEGFhs0_07zUFj-2">
          <mxGeometry x="55" y="420" width="140" height="60" as="geometry" />
        </mxCell>
        <mxCell id="GihW5QAEGFhs0_07zUFj-3" value="render" style="swimlane;startSize=40;fontSize=18;" vertex="1" parent="GihW5QAEGFhs0_07zUFj-1">
          <mxGeometry x="250" y="40" width="250" height="1100" as="geometry" />
        </mxCell>
        <mxCell id="GihW5QAEGFhs0_07zUFj-17" value="&lt;font style=&quot;font-size: 14px&quot;&gt;获取配置，定义渲染相关函数&lt;/font&gt;" style="edgeStyle=orthogonalEdgeStyle;rounded=0;orthogonalLoop=1;jettySize=auto;html=1;fontSize=18;" edge="1" parent="GihW5QAEGFhs0_07zUFj-3" source="GihW5QAEGFhs0_07zUFj-13" target="GihW5QAEGFhs0_07zUFj-16">
          <mxGeometry relative="1" as="geometry" />
        </mxCell>
        <mxCell id="GihW5QAEGFhs0_07zUFj-13" value="&lt;font style=&quot;font-size: 16px&quot;&gt;createRender&lt;/font&gt;" style="rounded=1;whiteSpace=wrap;html=1;fontSize=18;fillColor=#ffe6cc;strokeColor=#d79b00;" vertex="1" parent="GihW5QAEGFhs0_07zUFj-3">
          <mxGeometry x="60" y="65" width="110" height="40" as="geometry" />
        </mxCell>
        <mxCell id="GihW5QAEGFhs0_07zUFj-16" value="&lt;font style=&quot;font-size: 16px&quot;&gt;baseRender&lt;/font&gt;" style="rounded=1;whiteSpace=wrap;html=1;fontSize=18;fillColor=#ffe6cc;strokeColor=#d79b00;" vertex="1" parent="GihW5QAEGFhs0_07zUFj-3">
          <mxGeometry x="60" y="200" width="110" height="40" as="geometry" />
        </mxCell>
        <mxCell id="GihW5QAEGFhs0_07zUFj-9" value="&lt;font style=&quot;font-size: 12px&quot;&gt;返回render, hydrate, ceateApp&lt;/font&gt;" style="text;html=1;strokeColor=none;fillColor=none;align=center;verticalAlign=middle;whiteSpace=wrap;rounded=0;fontSize=18;" vertex="1" parent="GihW5QAEGFhs0_07zUFj-3">
          <mxGeometry x="25" y="250" width="180" height="10" as="geometry" />
        </mxCell>
        <mxCell id="GihW5QAEGFhs0_07zUFj-4" value="apiCreateApp" style="swimlane;startSize=40;fontSize=18;" vertex="1" parent="GihW5QAEGFhs0_07zUFj-1">
          <mxGeometry x="500" y="40" width="240" height="1100" as="geometry" />
        </mxCell>
        <mxCell id="GihW5QAEGFhs0_07zUFj-21" value="&lt;font style=&quot;font-size: 16px&quot;&gt;createApp&lt;br&gt;创建app对象&lt;br&gt;&lt;/font&gt;" style="rounded=1;whiteSpace=wrap;html=1;fontSize=18;fillColor=#ffe6cc;strokeColor=#d79b00;" vertex="1" parent="GihW5QAEGFhs0_07zUFj-4">
          <mxGeometry x="45" y="315" width="130" height="60" as="geometry" />
        </mxCell>
        <mxCell id="GihW5QAEGFhs0_07zUFj-32" style="edgeStyle=orthogonalEdgeStyle;rounded=1;orthogonalLoop=1;jettySize=auto;html=1;fontSize=18;" edge="1" parent="GihW5QAEGFhs0_07zUFj-4" source="GihW5QAEGFhs0_07zUFj-28" target="GihW5QAEGFhs0_07zUFj-31">
          <mxGeometry relative="1" as="geometry" />
        </mxCell>
        <mxCell id="GihW5QAEGFhs0_07zUFj-28" value="&lt;font style=&quot;font-size: 16px&quot;&gt;mount&lt;br&gt;挂载&lt;br&gt;&lt;/font&gt;" style="rounded=1;whiteSpace=wrap;html=1;fontSize=18;fillColor=#ffe6cc;strokeColor=#d79b00;" vertex="1" parent="GihW5QAEGFhs0_07zUFj-4">
          <mxGeometry x="45" y="420" width="140" height="60" as="geometry" />
        </mxCell>
        <mxCell id="GihW5QAEGFhs0_07zUFj-31" value="&lt;font style=&quot;font-size: 16px&quot;&gt;createVNode&lt;br&gt;创建VNode节点&lt;br&gt;&lt;/font&gt;" style="rounded=1;whiteSpace=wrap;html=1;fontSize=18;fillColor=#ffe6cc;strokeColor=#d79b00;" vertex="1" parent="GihW5QAEGFhs0_07zUFj-4">
          <mxGeometry x="45" y="550" width="140" height="60" as="geometry" />
        </mxCell>
        <mxCell id="GihW5QAEGFhs0_07zUFj-55" value="&lt;font style=&quot;font-size: 16px&quot;&gt;patch&lt;br&gt;&lt;br&gt;&lt;/font&gt;" style="rounded=1;whiteSpace=wrap;html=1;fontSize=18;fillColor=#ffe6cc;strokeColor=#d79b00;" vertex="1" parent="GihW5QAEGFhs0_07zUFj-4">
          <mxGeometry x="50" y="810" width="140" height="60" as="geometry" />
        </mxCell>
        <mxCell id="GihW5QAEGFhs0_07zUFj-56" value="&lt;font style=&quot;font-size: 16px&quot;&gt;processComponent&lt;br&gt;&lt;br&gt;&lt;/font&gt;" style="rounded=1;whiteSpace=wrap;html=1;fontSize=18;fillColor=#ffe6cc;strokeColor=#d79b00;" vertex="1" parent="GihW5QAEGFhs0_07zUFj-4">
          <mxGeometry x="50" y="940" width="140" height="60" as="geometry" />
        </mxCell>
        <mxCell id="GihW5QAEGFhs0_07zUFj-18" style="edgeStyle=orthogonalEdgeStyle;rounded=0;orthogonalLoop=1;jettySize=auto;html=1;fontSize=18;" edge="1" parent="GihW5QAEGFhs0_07zUFj-1" source="GihW5QAEGFhs0_07zUFj-7" target="GihW5QAEGFhs0_07zUFj-13">
          <mxGeometry relative="1" as="geometry" />
        </mxCell>
        <mxCell id="GihW5QAEGFhs0_07zUFj-19" style="edgeStyle=orthogonalEdgeStyle;rounded=0;orthogonalLoop=1;jettySize=auto;html=1;entryX=1;entryY=0.75;entryDx=0;entryDy=0;fontSize=18;" edge="1" parent="GihW5QAEGFhs0_07zUFj-1" source="GihW5QAEGFhs0_07zUFj-16" target="GihW5QAEGFhs0_07zUFj-7">
          <mxGeometry relative="1" as="geometry" />
        </mxCell>
        <mxCell id="GihW5QAEGFhs0_07zUFj-24" style="edgeStyle=orthogonalEdgeStyle;rounded=1;orthogonalLoop=1;jettySize=auto;html=1;exitX=1;exitY=0.5;exitDx=0;exitDy=0;fontSize=18;" edge="1" parent="GihW5QAEGFhs0_07zUFj-1" source="GihW5QAEGFhs0_07zUFj-22" target="GihW5QAEGFhs0_07zUFj-21">
          <mxGeometry relative="1" as="geometry" />
        </mxCell>
        <mxCell id="GihW5QAEGFhs0_07zUFj-30" style="edgeStyle=orthogonalEdgeStyle;rounded=1;orthogonalLoop=1;jettySize=auto;html=1;exitX=1;exitY=0.5;exitDx=0;exitDy=0;fontSize=18;" edge="1" parent="GihW5QAEGFhs0_07zUFj-1" source="GihW5QAEGFhs0_07zUFj-25" target="GihW5QAEGFhs0_07zUFj-28">
          <mxGeometry relative="1" as="geometry" />
        </mxCell>
        <mxCell id="GihW5QAEGFhs0_07zUFj-54" value="&lt;font style=&quot;font-size: 16px&quot;&gt;render&lt;br&gt;渲染VNode节点&lt;br&gt;&lt;/font&gt;" style="rounded=1;whiteSpace=wrap;html=1;fontSize=18;fillColor=#ffe6cc;strokeColor=#d79b00;" vertex="1" parent="1">
          <mxGeometry x="450" y="1169" width="140" height="60" as="geometry" />
        </mxCell>
      </root>
    </mxGraphModel>
  </diagram>
</mxfile>
